<svg width="80" height="21" viewBox="0 0 80 21" fill="none" xmlns="http://www.w3.org/2000/svg">
<rect x="51" width="28" height="21" fill="#16B67F"/>
<path d="M58.6262 6.23913L52 8.45652L55.8328 3.1087H58.6262M58.6262 6.23913V3.1087M58.6262 6.23913V10.5761M58.6262 3.1087L65.772 14.913M58.6262 14.913H65.772M58.6262 14.913V10.5761M58.6262 14.913L70.9041 20M65.772 14.913L70.9041 20M65.772 14.913L67.0713 8.45652M65.772 14.913L72.5281 6.23913L67.0713 8.45652M58.6262 10.5761L68.3705 2L67.0713 8.45652M70.9041 20L77.92 14.913H73.8923L70.9041 20Z" stroke="white"/>
<path d="M5.958 15.18C4.662 15.18 3.678 14.73 3.006 13.83V14.586C3.006 14.706 2.964 14.808 2.88 14.892C2.808 14.964 2.712 15 2.592 15H1.764C1.644 15 1.542 14.964 1.458 14.892C1.386 14.808 1.35 14.706 1.35 14.586V2.634C1.35 2.514 1.386 2.418 1.458 2.346C1.542 2.262 1.644 2.22 1.764 2.22H2.646C2.766 2.22 2.862 2.262 2.934 2.346C3.006 2.418 3.042 2.514 3.042 2.634V6.774C3.75 5.898 4.722 5.46 5.958 5.46C7.206 5.46 8.148 5.874 8.784 6.702C9.42 7.518 9.762 8.544 9.81 9.78C9.822 9.912 9.828 10.092 9.828 10.32C9.828 10.548 9.822 10.728 9.81 10.86C9.762 12.108 9.42 13.14 8.784 13.956C8.148 14.772 7.206 15.18 5.958 15.18ZM5.58 13.722C6.432 13.722 7.05 13.458 7.434 12.93C7.83 12.402 8.046 11.706 8.082 10.842C8.094 10.722 8.1 10.548 8.1 10.32C8.1 8.052 7.26 6.918 5.58 6.918C4.776 6.918 4.158 7.182 3.726 7.71C3.294 8.238 3.066 8.856 3.042 9.564L3.024 10.266L3.042 10.95C3.078 11.706 3.3 12.36 3.708 12.912C4.128 13.452 4.752 13.722 5.58 13.722ZM16.4471 15.18C15.8591 15.18 15.3131 15.06 14.8091 14.82C14.3051 14.58 13.9031 14.256 13.6031 13.848C13.3151 13.428 13.1711 12.966 13.1711 12.462C13.1711 11.67 13.4951 11.022 14.1431 10.518C14.8031 10.002 15.6911 9.666 16.8071 9.51L19.4891 9.132V8.61C19.4891 7.386 18.7871 6.774 17.3831 6.774C16.8551 6.774 16.4231 6.888 16.0871 7.116C15.7511 7.332 15.4991 7.59 15.3311 7.89C15.2951 7.998 15.2471 8.076 15.1871 8.124C15.1391 8.172 15.0671 8.196 14.9711 8.196H14.1971C14.0891 8.196 13.9931 8.16 13.9091 8.088C13.8371 8.004 13.8011 7.908 13.8011 7.8C13.8131 7.512 13.9451 7.188 14.1971 6.828C14.4611 6.456 14.8631 6.138 15.4031 5.874C15.9431 5.598 16.6091 5.46 17.4011 5.46C18.7451 5.46 19.7111 5.778 20.2991 6.414C20.8871 7.038 21.1811 7.818 21.1811 8.754V14.586C21.1811 14.706 21.1391 14.808 21.0551 14.892C20.9831 14.964 20.8871 15 20.7671 15H19.9391C19.8191 15 19.7171 14.964 19.6331 14.892C19.5611 14.808 19.5251 14.706 19.5251 14.586V13.812C19.2611 14.196 18.8771 14.52 18.3731 14.784C17.8691 15.048 17.2271 15.18 16.4471 15.18ZM16.8251 13.83C17.6051 13.83 18.2411 13.578 18.7331 13.074C19.2371 12.558 19.4891 11.82 19.4891 10.86V10.356L17.4011 10.662C16.5491 10.782 15.9071 10.986 15.4751 11.274C15.0431 11.55 14.8271 11.904 14.8271 12.336C14.8271 12.816 15.0251 13.188 15.4211 13.452C15.8171 13.704 16.2851 13.83 16.8251 13.83ZM25.9827 15C25.8627 15 25.7607 14.964 25.6767 14.892C25.6047 14.808 25.5687 14.706 25.5687 14.586V6.054C25.5687 5.934 25.6047 5.838 25.6767 5.766C25.7607 5.682 25.8627 5.64 25.9827 5.64H26.8287C26.9487 5.64 27.0447 5.682 27.1167 5.766C27.2007 5.838 27.2427 5.934 27.2427 6.054V6.846C27.5907 6.402 27.9987 6.06 28.4667 5.82C28.9467 5.58 29.5407 5.46 30.2487 5.46C31.4007 5.46 32.2947 5.832 32.9307 6.576C33.5787 7.308 33.9027 8.286 33.9027 9.51V14.586C33.9027 14.706 33.8607 14.808 33.7767 14.892C33.7047 14.964 33.6087 15 33.4887 15H32.5887C32.4687 15 32.3667 14.964 32.2827 14.892C32.2107 14.808 32.1747 14.706 32.1747 14.586V9.6C32.1747 8.748 31.9647 8.088 31.5447 7.62C31.1367 7.152 30.5427 6.918 29.7627 6.918C29.0067 6.918 28.4067 7.158 27.9627 7.638C27.5187 8.106 27.2967 8.76 27.2967 9.6V14.586C27.2967 14.706 27.2547 14.808 27.1707 14.892C27.0987 14.964 27.0027 15 26.8827 15H25.9827ZM38.7167 15C38.5967 15 38.4947 14.964 38.4107 14.892C38.3387 14.808 38.3027 14.706 38.3027 14.586V2.634C38.3027 2.514 38.3387 2.418 38.4107 2.346C38.4947 2.262 38.5967 2.22 38.7167 2.22H39.5627C39.6827 2.22 39.7787 2.262 39.8507 2.346C39.9347 2.418 39.9767 2.514 39.9767 2.634V8.898L43.5227 5.946C43.5587 5.922 43.6187 5.874 43.7027 5.802C43.7867 5.742 43.8647 5.7 43.9367 5.676C44.0207 5.652 44.1227 5.64 44.2427 5.64H45.1967C45.3047 5.64 45.3947 5.676 45.4667 5.748C45.5387 5.82 45.5747 5.91 45.5747 6.018C45.5747 6.15 45.5027 6.264 45.3587 6.36L41.2007 9.816L45.8087 14.298C45.9527 14.418 46.0247 14.526 46.0247 14.622C46.0247 14.73 45.9887 14.82 45.9167 14.892C45.8447 14.964 45.7547 15 45.6467 15H44.7107C44.5307 15 44.3987 14.982 44.3147 14.946C44.2427 14.91 44.1347 14.826 43.9907 14.694L39.9767 10.86V14.586C39.9767 14.706 39.9347 14.808 39.8507 14.892C39.7787 14.964 39.6827 15 39.5627 15H38.7167Z" fill="#16B67F"/>
<rect x="3" y="18" width="40" height="1" fill="#16B67F"/>
</svg>
